<svg width="126" height="17" viewBox="0 0 126 17" fill="none" xmlns="http://www.w3.org/2000/svg">
<path d="M6.47021 2.897C7.54721 0.966 8.08521 0 8.89021 0C9.69521 0 10.2332 0.966 11.3102 2.897L11.5882 3.397C11.8942 3.946 12.0482 4.22 12.2862 4.401C12.5242 4.582 12.8212 4.649 13.4162 4.784L13.9562 4.906C16.0472 5.379 17.0932 5.616 17.3412 6.416C17.5902 7.216 16.8772 8.049 15.4512 9.716L15.0832 10.146C14.6782 10.62 14.4762 10.857 14.3842 11.15C14.2942 11.443 14.3242 11.759 14.3852 12.39L14.4412 12.966C14.6572 15.19 14.7642 16.302 14.1132 16.796C13.4622 17.291 12.4832 16.84 10.5262 15.939L10.0192 15.705C9.46321 15.449 9.18521 15.321 8.89021 15.321C8.59521 15.321 8.31721 15.449 7.76021 15.705L7.25421 15.939C5.29721 16.839 4.31821 17.291 3.66721 16.796C3.01621 16.302 3.12421 15.19 3.33921 12.966L3.39521 12.391C3.45621 11.759 3.48721 11.443 3.39521 11.151C3.30521 10.857 3.10221 10.621 2.69721 10.147L2.32821 9.715C0.903213 8.049 0.190212 7.215 0.438212 6.415C0.688212 5.615 1.73321 5.379 3.82421 4.906L4.36421 4.784C4.95921 4.649 5.25621 4.582 5.49421 4.401C5.73321 4.221 5.88621 3.946 6.19221 3.397L6.47021 2.897Z" fill="#830000"/>
<path d="M33.4707 2.897C34.5477 0.966 35.0857 0 35.8907 0C36.6957 0 37.2337 0.966 38.3107 2.897L38.5887 3.397C38.8947 3.946 39.0487 4.22 39.2867 4.401C39.5247 4.582 39.8217 4.649 40.4167 4.784L40.9567 4.906C43.0477 5.379 44.0937 5.616 44.3417 6.416C44.5907 7.216 43.8777 8.049 42.4517 9.716L42.0837 10.146C41.6787 10.62 41.4767 10.857 41.3847 11.15C41.2947 11.443 41.3247 11.759 41.3857 12.39L41.4417 12.966C41.6577 15.19 41.7647 16.302 41.1137 16.796C40.4627 17.291 39.4837 16.84 37.5267 15.939L37.0197 15.705C36.4637 15.449 36.1857 15.321 35.8907 15.321C35.5957 15.321 35.3177 15.449 34.7607 15.705L34.2547 15.939C32.2977 16.839 31.3187 17.291 30.6677 16.796C30.0167 16.302 30.1247 15.19 30.3397 12.966L30.3957 12.391C30.4567 11.759 30.4877 11.443 30.3957 11.151C30.3057 10.857 30.1027 10.621 29.6977 10.147L29.3287 9.715C27.9037 8.049 27.1907 7.215 27.4387 6.415C27.6887 5.615 28.7337 5.379 30.8247 4.906L31.3647 4.784C31.9597 4.649 32.2567 4.582 32.4947 4.401C32.7337 4.221 32.8867 3.946 33.1927 3.397L33.4707 2.897Z" fill="#830000"/>
<path d="M60.4711 2.897C61.5481 0.966 62.0861 0 62.8911 0C63.6961 0 64.2341 0.966 65.3111 2.897L65.5891 3.397C65.8951 3.946 66.0491 4.22 66.2871 4.401C66.5251 4.582 66.8221 4.649 67.4171 4.784L67.9571 4.906C70.0481 5.379 71.0941 5.616 71.3421 6.416C71.5911 7.216 70.8781 8.049 69.4521 9.716L69.0841 10.146C68.6791 10.62 68.4771 10.857 68.3851 11.15C68.2951 11.443 68.3251 11.759 68.3861 12.39L68.4421 12.966C68.6581 15.19 68.7651 16.302 68.1141 16.796C67.4631 17.291 66.4841 16.84 64.5271 15.939L64.0201 15.705C63.4641 15.449 63.1861 15.321 62.8911 15.321C62.5961 15.321 62.3181 15.449 61.7611 15.705L61.2551 15.939C59.2981 16.839 58.3191 17.291 57.6681 16.796C57.0171 16.302 57.1251 15.19 57.3401 12.966L57.3961 12.391C57.4571 11.759 57.4881 11.443 57.3961 11.151C57.3061 10.857 57.1031 10.621 56.6981 10.147L56.3291 9.715C54.9041 8.049 54.1911 7.215 54.4391 6.415C54.6891 5.615 55.7341 5.379 57.8251 4.906L58.3651 4.784C58.9601 4.649 59.2571 4.582 59.4951 4.401C59.7341 4.221 59.8871 3.946 60.1931 3.397L60.4711 2.897Z" fill="#830000"/>
<path d="M87.4715 2.897C88.5485 0.966 89.0865 0 89.8915 0C90.6965 0 91.2345 0.966 92.3115 2.897L92.5895 3.397C92.8955 3.946 93.0495 4.22 93.2875 4.401C93.5255 4.582 93.8225 4.649 94.4175 4.784L94.9575 4.906C97.0485 5.379 98.0945 5.616 98.3425 6.416C98.5915 7.216 97.8785 8.049 96.4525 9.716L96.0845 10.146C95.6795 10.62 95.4775 10.857 95.3855 11.15C95.2955 11.443 95.3255 11.759 95.3865 12.39L95.4425 12.966C95.6585 15.19 95.7655 16.302 95.1145 16.796C94.4635 17.291 93.4845 16.84 91.5275 15.939L91.0205 15.705C90.4645 15.449 90.1865 15.321 89.8915 15.321C89.5965 15.321 89.3185 15.449 88.7615 15.705L88.2555 15.939C86.2985 16.839 85.3195 17.291 84.6685 16.796C84.0175 16.302 84.1255 15.19 84.3405 12.966L84.3965 12.391C84.4575 11.759 84.4885 11.443 84.3965 11.151C84.3065 10.857 84.1035 10.621 83.6985 10.147L83.3295 9.715C81.9045 8.049 81.1915 7.215 81.4395 6.415C81.6895 5.615 82.7345 5.379 84.8255 4.906L85.3655 4.784C85.9605 4.649 86.2575 4.582 86.4955 4.401C86.7345 4.221 86.8875 3.946 87.1935 3.397L87.4715 2.897Z" fill="#830000"/>
<path d="M114.472 2.897C115.549 0.966 116.087 0 116.892 0C117.697 0 118.235 0.966 119.312 2.897L119.59 3.397C119.896 3.946 120.05 4.22 120.288 4.401C120.526 4.582 120.823 4.649 121.418 4.784L121.958 4.906C124.049 5.379 125.095 5.616 125.343 6.416C125.592 7.216 124.879 8.049 123.453 9.716L123.085 10.146C122.68 10.62 122.478 10.857 122.386 11.15C122.296 11.443 122.326 11.759 122.387 12.39L122.443 12.966C122.659 15.19 122.766 16.302 122.115 16.796C121.464 17.291 120.485 16.84 118.528 15.939L118.021 15.705C117.465 15.449 117.187 15.321 116.892 15.321C116.597 15.321 116.319 15.449 115.762 15.705L115.256 15.939C113.299 16.839 112.32 17.291 111.669 16.796C111.018 16.302 111.126 15.19 111.341 12.966L111.397 12.391C111.458 11.759 111.489 11.443 111.397 11.151C111.307 10.857 111.104 10.621 110.699 10.147L110.33 9.715C108.905 8.049 108.192 7.215 108.44 6.415C108.69 5.615 109.735 5.379 111.826 4.906L112.366 4.784C112.961 4.649 113.258 4.582 113.496 4.401C113.735 4.221 113.888 3.946 114.194 3.397L114.472 2.897Z" fill="#830000"/>
</svg>
