<svg width="286" height="93" viewBox="0 0 286 93" fill="none" xmlns="http://www.w3.org/2000/svg">
<path fill-rule="evenodd" clip-rule="evenodd" d="M57.3347 86.3421C57.6894 86.7994 58.1522 87.1678 58.6843 87.4164C59.2163 87.6649 59.8021 87.7865 60.3927 87.7708C63.0564 87.7708 64.5854 85.6716 64.5854 83.3455C64.5854 81.0194 63.0671 78.8531 60.3234 78.8531C59.7481 78.8476 59.179 78.9698 58.66 79.2103C58.141 79.4508 57.6858 79.8032 57.3294 80.2405V79.0594H55.811V92.2218H57.3294V86.3421H57.3347ZM60.2009 86.471C58.4109 86.471 57.2708 85.063 57.2708 83.33C57.2708 81.2669 58.7678 80.1632 60.1796 80.1632C61.5914 80.1632 63.0458 81.2669 63.0458 83.3506C63.0458 85.0424 61.9803 86.471 60.2009 86.471ZM72.5926 87.5335H74.111V83.1031C74.0459 82.2944 74.2676 81.4884 74.7396 80.8182C74.9277 80.6027 75.1643 80.4316 75.4311 80.3181C75.6979 80.2046 75.988 80.1516 76.2793 80.1632C76.5513 80.1479 76.8232 80.1956 77.0724 80.3024C77.3217 80.4091 77.541 80.5718 77.7124 80.777C78.0164 81.2367 78.1567 81.7801 78.1119 82.3243V87.5284H79.6303V82.283C79.7032 81.4928 79.5167 80.7005 79.0975 80.0188C78.8099 79.6403 78.4306 79.3361 77.9931 79.1329C77.5556 78.9296 77.0731 78.8336 76.5883 78.8531C76.1037 78.845 75.6241 78.9483 75.1888 79.1545C74.7536 79.3608 74.375 79.664 74.0843 80.0394V72.6484H72.566V87.5284L72.5926 87.5335ZM91.9368 87.7759C92.8478 87.7708 93.7367 87.5044 94.4914 87.0104C95.246 86.5164 95.8325 85.817 96.1767 85.0004C96.521 84.1839 96.6075 83.2869 96.4254 82.4228C96.2433 81.5586 95.8007 80.7661 95.1536 80.1454C94.5065 79.5246 93.6838 79.1035 92.7896 78.9352C91.8954 78.7669 90.9697 78.8589 90.1294 79.1997C89.2892 79.5405 88.5722 80.1148 88.0689 80.8499C87.5656 81.585 87.2987 82.4481 87.3019 83.33C87.287 83.9213 87.3971 84.5093 87.6253 85.0579C87.8535 85.6065 88.1951 86.1043 88.6291 86.5206C89.0631 86.9368 89.5803 87.2629 90.1491 87.4788C90.7179 87.6947 91.3262 87.7958 91.9368 87.7759ZM91.9368 80.1632C93.535 80.1632 95.0161 81.2463 95.0161 83.33C95.0408 83.7362 94.9794 84.1431 94.8359 84.5255C94.6923 84.908 94.4695 85.258 94.1811 85.5541C93.8927 85.8502 93.5449 86.0861 93.159 86.2473C92.773 86.4086 92.3571 86.4917 91.9368 86.4917C91.5165 86.4917 91.1005 86.4086 90.7146 86.2473C90.3287 86.0861 89.9808 85.8502 89.6925 85.5541C89.4041 85.258 89.1813 84.908 89.0377 84.5255C88.8941 84.1431 88.8328 83.7362 88.8575 83.33C88.8575 81.2669 90.3332 80.1632 91.9368 80.1632ZM107.637 80.4108V79.0646H106.119V76.0009H104.579V79.0646H103.652V80.4108H104.579V87.5335H106.097V80.4056L107.637 80.4108ZM118.825 87.7759C119.736 87.7708 120.625 87.5044 121.379 87.0104C122.134 86.5164 122.72 85.817 123.065 85.0004C123.409 84.1839 123.495 83.2869 123.313 82.4228C123.131 81.5586 122.689 80.7661 122.041 80.1454C121.394 79.5246 120.572 79.1035 119.677 78.9352C118.783 78.7669 117.858 78.8589 117.017 79.1997C116.177 79.5405 115.46 80.1148 114.957 80.8499C114.454 81.585 114.187 82.4481 114.19 83.33C114.175 83.9213 114.285 84.5093 114.513 85.0579C114.741 85.6065 115.083 86.1043 115.517 86.5206C115.951 86.9368 116.468 87.2629 117.037 87.4788C117.606 87.6947 118.214 87.7958 118.825 87.7759ZM118.825 80.1632C120.423 80.1632 121.904 81.2463 121.904 83.33C121.921 83.7316 121.854 84.1324 121.708 84.5083C121.561 84.8843 121.337 85.2276 121.05 85.5177C120.762 85.8077 120.417 86.0385 120.035 86.1962C119.653 86.3538 119.242 86.4351 118.827 86.4351C118.412 86.4351 118.001 86.3538 117.619 86.1962C117.238 86.0385 116.893 85.8077 116.605 85.5177C116.318 85.2276 116.094 84.8843 115.947 84.5083C115.8 84.1324 115.733 83.7316 115.751 83.33C115.751 81.2669 117.226 80.1632 118.825 80.1632ZM138.153 80.2663C137.805 79.8186 137.352 79.4574 136.831 79.2126C136.311 78.9678 135.737 78.8463 135.159 78.8583C134.045 78.8507 132.972 79.2611 132.165 80.0033C131.734 80.4388 131.4 80.9549 131.183 81.5198C130.966 82.0848 130.87 82.6867 130.902 83.2887C130.871 83.9 130.967 84.511 131.184 85.0859C131.401 85.6607 131.734 86.1878 132.165 86.6361C132.968 87.3844 134.044 87.7943 135.159 87.7759C135.739 87.7826 136.312 87.6567 136.832 87.4084C137.353 87.1602 137.805 86.7966 138.153 86.3472V87.5748C138.208 88.3252 138.04 89.0752 137.668 89.7358C137.437 90.1257 137.097 90.4442 136.687 90.6542C136.277 90.8642 135.813 90.9571 135.351 90.9221C134.956 90.9444 134.56 90.883 134.192 90.7423C133.824 90.6015 133.492 90.3848 133.22 90.1072C132.783 89.6187 132.543 88.9944 132.543 88.3484H131.057C131.049 88.8547 131.146 89.3573 131.341 89.8267C131.537 90.2962 131.828 90.723 132.197 91.082C132.613 91.4631 133.103 91.7605 133.639 91.957C134.175 92.1535 134.746 92.2453 135.319 92.227C135.989 92.2498 136.655 92.1193 137.263 91.8459C137.871 91.5726 138.404 91.1642 138.819 90.6539C139.66 89.5553 139.66 88.2453 139.66 87.3272V79.0749H138.142V80.2818L138.153 80.2663ZM135.329 80.1632C136.067 80.1545 136.779 80.4268 137.311 80.9214C137.934 81.5677 138.267 82.4261 138.238 83.3094C138.248 83.7608 138.165 84.2096 137.995 84.63C137.825 85.0504 137.571 85.4342 137.247 85.7593C136.993 85.9996 136.691 86.1868 136.359 86.3092C136.028 86.4317 135.673 86.4868 135.319 86.471C134.623 86.4875 133.947 86.2394 133.438 85.7799C133.102 85.4551 132.84 85.0655 132.669 84.6363C132.498 84.2072 132.423 83.748 132.447 83.2887C132.429 82.8633 132.498 82.4385 132.651 82.0392C132.803 81.6399 133.037 81.2739 133.337 80.9626C133.594 80.706 133.902 80.5028 134.243 80.3654C134.583 80.2279 134.949 80.1591 135.319 80.1632H135.329ZM148.2 87.5335H149.703V83.0618C149.703 81.6744 149.959 81.1019 150.209 80.777C150.357 80.604 150.545 80.4673 150.758 80.3777C150.971 80.2881 151.203 80.2482 151.434 80.2612C151.753 80.2672 152.061 80.3681 152.319 80.55L153.033 79.2193C152.614 79.0109 152.155 78.893 151.685 78.8738C151.284 78.8888 150.894 78.9993 150.548 79.1955C150.202 79.3916 149.912 79.6673 149.703 79.9981V79.0801H148.184V87.549L148.2 87.5335ZM166.346 80.2818C166 79.8319 165.548 79.4691 165.026 79.224C164.505 78.9789 163.931 78.8588 163.352 78.8738C161.12 78.8738 159.09 80.385 159.09 83.3042C159.09 86.2235 161.136 87.7914 163.352 87.7914C163.932 87.7981 164.505 87.6722 165.025 87.4239C165.546 87.1757 165.998 86.8121 166.346 86.3627V87.549H167.864V79.0594H166.346V80.2818ZM163.522 80.1787C164.87 80.1787 166.431 81.138 166.431 83.3248C166.431 84.9959 165.366 86.4865 163.522 86.4865C161.679 86.4865 160.656 85.1197 160.656 83.3042C160.656 81.2411 162.025 80.1787 163.522 80.1787ZM177.907 86.3679C178.261 86.8248 178.722 87.193 179.253 87.4416C179.785 87.6901 180.37 87.8119 180.959 87.7966C183.623 87.7966 185.157 85.6974 185.157 83.3713C185.157 81.0452 183.639 78.8789 180.895 78.8789C180.32 78.8734 179.751 78.9956 179.232 79.2361C178.713 79.4766 178.258 79.829 177.901 80.2663V79.0852H176.383V92.2476H177.939V86.3679H177.907ZM180.751 86.4917C178.961 86.4917 177.821 85.0836 177.821 83.3506C177.821 81.2876 179.318 80.1838 180.73 80.1838C182.142 80.1838 183.596 81.2876 183.596 83.3713C183.596 85.063 182.531 86.4917 180.751 86.4917ZM193.143 87.5541H194.662V83.1237C194.596 82.315 194.818 81.509 195.29 80.8388C195.478 80.6233 195.715 80.4522 195.982 80.3387C196.249 80.2252 196.539 80.1722 196.83 80.1838C197.102 80.1686 197.374 80.2163 197.623 80.323C197.872 80.4298 198.092 80.5924 198.263 80.7976C198.567 81.2573 198.707 81.8007 198.663 82.3449V87.549H200.181V82.283C200.262 81.4955 200.085 80.7034 199.675 80.0188C199.387 79.6403 199.008 79.3361 198.57 79.1329C198.133 78.9296 197.65 78.8336 197.165 78.8531C196.681 78.845 196.201 78.9483 195.766 79.1545C195.331 79.3608 194.952 79.664 194.662 80.0394V72.6484H193.143V87.5284V87.5541ZM214.986 84.7174C214.774 85.1632 214.465 85.5591 214.08 85.8779C213.582 86.2884 212.945 86.5069 212.29 86.4917C210.772 86.4917 209.525 85.3724 209.504 83.6137H216.313C216.369 82.4978 216.083 81.3908 215.492 80.4314C215.114 79.9308 214.614 79.5279 214.037 79.2581C213.46 78.9883 212.824 78.8599 212.184 78.8841C209.547 78.8841 207.922 80.844 207.922 83.3764C207.922 86.5175 210.138 87.8017 212.248 87.8017C213.317 87.8233 214.355 87.4551 215.156 86.7702C215.589 86.3745 215.949 85.9106 216.222 85.3982L214.959 84.7277L214.986 84.7174ZM209.632 82.3449C209.722 81.742 210.03 81.1895 210.501 80.7854C210.972 80.3814 211.576 80.1518 212.205 80.1374C212.836 80.1445 213.444 80.3715 213.917 80.7769C214.389 81.1823 214.695 81.7389 214.778 82.3449H209.632ZM224.32 87.5026H225.838V83.0309C225.838 81.6434 226.088 81.0709 226.344 80.746C226.491 80.5732 226.678 80.4364 226.89 80.3468C227.102 80.2572 227.333 80.2172 227.564 80.2302C227.884 80.2362 228.195 80.337 228.454 80.5191L229.168 79.1884C228.75 78.98 228.29 78.8621 227.82 78.8428C227.419 78.857 227.029 78.9671 226.683 79.1633C226.337 79.3595 226.047 79.6357 225.838 79.9672V79.0491H224.32V87.5026Z" fill="black"/>
<path fill-rule="evenodd" clip-rule="evenodd" d="M18.8007 63.7773L8.20435 50.8831L17.9803 38.9533H13.6011L3.42025 51.3318V38.9533H0V63.7773H3.42025V56.7216L6.01474 53.5444L14.3842 63.7773H18.8007ZM33.7177 62.1268L35.4279 63.7773H37.138V47.2263H33.7337V48.8767C32.2553 47.8033 30.4566 47.224 28.6087 47.2263C26.9191 47.2285 25.2681 47.715 23.8638 48.6244C22.4594 49.5337 21.3646 50.8253 20.7173 52.3361C20.07 53.847 19.8993 55.5096 20.2266 57.1143C20.554 58.719 21.3647 60.1939 22.5566 61.3532C23.3407 62.1362 24.2823 62.7553 25.3232 63.1722C26.3642 63.5892 27.4823 63.7951 28.6087 63.7773C30.4587 63.7917 32.2613 63.2112 33.7337 62.1268H33.7177ZM24.97 59.0322C24.4734 58.5762 24.0763 58.0285 23.8019 57.4215C23.5275 56.8145 23.3815 56.1604 23.3725 55.4979C23.3634 54.8353 23.4916 54.1778 23.7493 53.5639C24.0071 52.9501 24.3892 52.3925 24.8731 51.924C25.3571 51.4555 25.9331 51.0855 26.5671 50.836C27.2011 50.5865 27.8803 50.4624 28.5647 50.4712C29.249 50.4799 29.9246 50.6213 30.5517 50.8869C31.1787 51.1525 31.7444 51.537 32.2154 52.0177C32.7119 52.4738 33.1091 53.0214 33.3835 53.6284C33.6578 54.2355 33.8039 54.8895 33.8129 55.5521C33.8219 56.2146 33.6938 56.8722 33.436 57.486C33.1783 58.0998 32.7962 58.6574 32.3122 59.126C31.8283 59.5945 31.2523 59.9644 30.6183 60.214C29.9842 60.4635 29.305 60.5875 28.6207 60.5788C27.9363 60.57 27.2607 60.4287 26.6337 60.1631C26.0067 59.8974 25.441 59.5129 24.97 59.0322ZM43.9891 47.2263V38.974H40.5689V56.7422C40.5552 57.6716 40.7371 58.5941 41.1034 59.4533C41.4698 60.3125 42.013 61.0905 42.6999 61.74C43.3634 62.4045 44.1604 62.9303 45.0418 63.2851C45.9233 63.64 46.8704 63.8162 47.8249 63.8031V60.497C47.3221 60.5038 46.8233 60.4102 46.3595 60.2221C45.8956 60.034 45.4769 59.7553 45.1292 59.4036C44.7646 59.0604 44.4763 58.6486 44.282 58.1936C44.0878 57.7386 43.9918 57.2499 43.9998 56.7577V50.5684H47.4147V47.2263H43.9891ZM50.5153 47.2263V63.7773H53.9356V47.2263H50.5153ZM50.7924 39.5362C50.5936 39.7194 50.4362 39.9405 50.3298 40.1854C50.2235 40.4304 50.1705 40.694 50.1744 40.9597C50.1913 41.4795 50.4104 41.9739 50.7877 42.344C51.165 42.7141 51.6728 42.9326 52.2095 42.9557C52.4839 42.9594 52.7562 42.9082 53.0092 42.8052C53.2622 42.7023 53.4906 42.5498 53.6799 42.3574C53.8802 42.1833 54.0388 41.9689 54.1446 41.7293C54.2504 41.4896 54.3009 41.2305 54.2925 40.97C54.2897 40.436 54.0694 39.9246 53.6793 39.547C53.2893 39.1694 52.7611 38.956 52.2095 38.9533C51.9439 38.9462 51.6798 38.9945 51.4353 39.0951C51.1907 39.1957 50.9714 39.3461 50.7924 39.5362ZM71.0368 62.1062L72.747 63.7566H74.4571V47.2263H71.0368V48.8767C69.5595 47.8013 67.7602 47.2218 65.9118 47.2263C64.2216 47.2271 62.5695 47.7129 61.1644 48.6222C59.7592 49.5315 58.6639 50.8237 58.0168 52.3353C57.3698 53.847 57.2 55.5104 57.529 57.1155C57.858 58.7205 58.6709 60.1952 59.8651 61.3532C60.6461 62.1344 61.5842 62.7525 62.6213 63.1694C63.6585 63.5863 64.7729 63.7932 65.8958 63.7773C67.7458 63.7917 69.5484 63.2112 71.0209 62.1268L71.0368 62.1062ZM62.2891 59.0116C61.4577 58.2009 60.9421 57.1365 60.8301 55.9993C60.7181 54.8621 61.0165 53.7225 61.6746 52.7743C62.3327 51.8261 63.3098 51.128 64.4397 50.7988C65.5696 50.4695 66.7824 50.5294 67.8718 50.9684C68.9612 51.4073 69.8598 52.1981 70.4148 53.2062C70.9697 54.2143 71.1468 55.3774 70.9157 56.4977C70.6847 57.6179 70.0598 58.626 69.1475 59.3505C68.2352 60.0749 67.0918 60.471 65.9118 60.4712C65.2373 60.478 64.5685 60.3522 63.9457 60.1013C63.323 59.8504 62.7594 59.4796 62.2891 59.0116ZM89.8216 43.6623L99.2193 52.7605L108.622 43.6623V63.7773H112.037V38.9533H108.622L99.2193 48.0515L89.8216 38.9533H86.4067V63.7773H89.8216V43.6623ZM122.905 72.0296L133.981 47.2159H130.252L124.749 59.5944L119.176 47.2159H115.447L122.873 63.7773L119.181 72.0296H122.905ZM152.782 63.7773L145.6 55.0092L151.962 47.2366H147.572L140.806 55.4889V38.9533H137.391V63.7773H140.806V60.8683L143.406 57.6912L148.392 63.7773H152.782ZM169.867 55.525V63.7773H173.287V55.525C173.287 53.3363 172.389 51.2373 170.791 49.6897C169.192 48.1421 167.024 47.2727 164.764 47.2727C162.915 47.2682 161.116 47.8477 159.638 48.9231V38.9533H156.218V63.7773H159.638V55.298C159.696 54.0181 160.261 52.8088 161.215 51.9213C162.169 51.0339 163.44 50.5364 164.764 50.5323C166.122 50.5337 167.425 51.0569 168.386 51.9871C169.347 52.9173 169.887 54.1785 169.889 55.494L169.867 55.525ZM190.378 62.1474L192.083 63.7979H193.793V47.2263H190.378V48.8767C188.898 47.8022 187.098 47.2229 185.248 47.2263C183.558 47.2271 181.905 47.7129 180.5 48.6222C179.095 49.5315 178 50.8237 177.353 52.3353C176.706 53.847 176.536 55.5104 176.865 57.1155C177.194 58.7205 178.007 60.1952 179.201 61.3532C179.984 62.136 180.925 62.7551 181.965 63.1721C183.005 63.589 184.122 63.795 185.248 63.7773C187.099 63.7917 188.904 63.2113 190.378 62.1268V62.1474ZM181.625 59.0528C180.794 58.2422 180.278 57.1777 180.166 56.0406C180.054 54.9034 180.352 53.7637 181.011 52.8156C181.669 51.8674 182.646 51.1693 183.776 50.84C184.906 50.5108 186.118 50.5707 187.208 51.0096C188.297 51.4485 189.196 52.2393 189.751 53.2474C190.306 54.2556 190.483 55.4187 190.252 56.5389C190.021 57.6591 189.396 58.6673 188.483 59.3917C187.571 60.1162 186.428 60.5122 185.248 60.5125C184.573 60.5193 183.904 60.3934 183.282 60.1425C182.659 59.8916 182.095 59.5209 181.625 59.0528ZM197.213 47.2778V63.7773H200.628V47.2263L197.213 47.2778ZM197.485 39.5362C197.287 39.7197 197.13 39.9409 197.025 40.1859C196.919 40.4309 196.868 40.6943 196.872 40.9597C196.886 41.4822 197.106 41.9797 197.488 42.3493C197.87 42.7189 198.384 42.9323 198.923 42.9454C199.197 42.949 199.468 42.8977 199.721 42.7947C199.973 42.6917 200.2 42.5393 200.388 42.3471C200.589 42.1732 200.749 41.959 200.856 41.7194C200.962 41.4798 201.014 41.2205 201.006 40.9597C201.013 40.6936 200.962 40.4291 200.855 40.1837C200.749 39.9384 200.59 39.7177 200.388 39.5362C200.202 39.3417 199.975 39.1882 199.722 39.0859C199.47 38.9836 199.197 38.9349 198.923 38.943C198.654 38.9348 198.385 38.9837 198.137 39.0861C197.888 39.1885 197.666 39.3421 197.485 39.5362ZM203.708 38.943V63.7773H207.122V38.9533L203.708 38.943ZM219.088 60.4506C218.413 60.4583 217.744 60.3329 217.121 60.0819C216.499 59.831 215.935 59.4597 215.465 58.9909C214.922 58.4667 214.502 57.8351 214.235 57.1393H227.484C227.907 55.1834 227.589 53.1454 226.589 51.3976C225.588 49.6498 223.971 48.3088 222.034 47.6196C220.096 46.9303 217.967 46.9388 216.036 47.6435C214.104 48.3482 212.499 49.702 211.513 51.4577C210.528 53.2135 210.227 55.2539 210.667 57.2064C211.106 59.1589 212.257 60.8931 213.908 62.0923C215.559 63.2914 217.601 63.8756 219.66 63.738C221.719 63.6004 223.659 62.7503 225.124 61.3428L222.689 59.0013C222.22 59.4701 221.656 59.8413 221.033 60.0922C220.41 60.3432 219.741 60.4686 219.067 60.4609L219.088 60.4506ZM219.088 50.522C219.762 50.5145 220.431 50.6396 221.053 50.8896C221.676 51.1396 222.24 51.5093 222.711 51.9765C223.267 52.492 223.689 53.1285 223.941 53.8333H214.235C214.511 53.1402 214.93 52.5086 215.465 51.9765C215.936 51.5093 216.5 51.1396 217.123 50.8896C217.745 50.6396 218.414 50.5145 219.088 50.522ZM236.072 51.9146C236.538 51.4628 237.093 51.1067 237.705 50.8674C238.316 50.6281 238.971 50.5107 239.631 50.522C240.99 50.5234 242.292 51.0466 243.253 51.9768C244.214 52.907 244.754 54.1682 244.756 55.4837V63.736H248.171V55.4837C248.171 53.2951 247.273 51.1961 245.674 49.6485C244.076 48.1009 241.908 47.2314 239.647 47.2314C237.797 47.2281 235.996 47.8074 234.516 48.8819L232.812 47.2263H231.107V63.7773H234.522V55.298C234.531 54.662 234.674 54.0345 234.94 53.453C235.206 52.8716 235.591 52.3483 236.072 51.9146ZM266.972 63.7773L259.795 55.0092L266.151 47.2366H261.777L255.011 55.4889V38.9533H251.591V63.7773H255.011V60.8683L257.606 57.6912L262.598 63.7773H266.972ZM270.392 49.6504C268.981 51.0066 268.099 52.7948 267.898 54.7099C267.697 56.625 268.189 58.5484 269.289 60.1517C270.389 61.7551 272.03 62.9391 273.932 63.5018C275.833 64.0645 277.878 63.971 279.716 63.2372C281.554 62.5034 283.072 61.1748 284.012 59.4781C284.951 57.7814 285.253 55.8217 284.866 53.9335C284.479 52.0453 283.428 50.3455 281.891 49.1242C280.354 47.9029 278.427 47.2357 276.439 47.2366C275.314 47.2166 274.196 47.4205 273.156 47.8358C272.116 48.251 271.175 48.8686 270.392 49.6504ZM272.816 59.0116C271.984 58.2009 271.469 57.1365 271.357 55.9993C271.245 54.8621 271.543 53.7225 272.201 52.7743C272.859 51.8261 273.837 51.128 274.966 50.7988C276.096 50.4695 277.309 50.5294 278.398 50.9684C279.488 51.4073 280.387 52.1981 280.941 53.2062C281.496 54.2143 281.673 55.3774 281.442 56.4977C281.211 57.6179 280.587 58.626 279.674 59.3505C278.762 60.0749 277.618 60.471 276.439 60.4712C275.763 60.4767 275.094 60.3492 274.471 60.0965C273.848 59.8438 273.285 59.4712 272.816 59.0013V59.0116Z" fill="black"/>
<path fill-rule="evenodd" clip-rule="evenodd" d="M150.283 1.13195C147.875 0.249987 145.196 1.58067 143.89 3.57154C143.079 4.95505 142.582 6.48999 142.431 8.07419C142.329 8.76017 142.239 9.44614 142.154 10.1373C141.362 8.78217 140.345 7.56243 139.144 6.52689C137.854 5.41283 134.466 2.60705 132.937 4.64949C131.296 6.84151 132.149 10.0083 133.225 12.2313C134.487 14.6371 136.063 16.8765 137.913 18.895C139.946 21.1924 142.228 23.271 144.722 25.0946V25.1564C144.322 26.5335 146.533 27.1215 146.927 25.7496C148.659 19.7718 151.882 14.2118 152.787 8.01746C153.16 5.51083 153.23 2.22022 150.289 1.15258L150.283 1.13195ZM149.245 8.16187C148.679 9.14533 148.218 10.1823 147.87 11.2565C148.541 2.14802 151.983 3.39617 149.245 8.16187ZM139.746 17.5128C137.956 15.4961 136.16 13.2319 135.073 10.7768C134.768 10.1173 134.547 9.42463 134.413 8.71375C134.594 9.00258 134.77 9.28625 134.919 9.54413C135.755 10.9831 136.672 12.3809 137.641 13.7425C139.485 16.3471 141.509 18.8228 143.539 21.2933C142.19 20.1149 140.923 18.852 139.746 17.5128Z" fill="black"/>
</svg>
